<svg clip-rule="evenodd" fill-rule="evenodd" height="512" stroke-linejoin="round" stroke-miterlimit="2" viewBox="0 0 24 24" width="512" xmlns="http://www.w3.org/2000/svg"><g id="Icon"><g><path d="m18.25 17.921c0-1.553-.76-3.009-2.034-3.897-1.614-1.125-3.787-2.639-3.787-2.639-.258-.18-.6-.18-.858 0 0 0-2.173 1.514-3.787 2.639-1.274.888-2.034 2.344-2.034 3.897v4.079c0 .414.336.75.75.75h11c.414 0 .75-.336.75-.75z"/><path d="m18.25 6.079v-4.079c0-.414-.336-.75-.75-.75h-11c-.414 0-.75.336-.75.75v4.079c0 1.553.76 3.009 2.034 3.897 1.614 1.125 3.787 2.639 3.787 2.639.258.18.6.18.858 0 0 0 2.173-1.514 3.787-2.639 1.274-.888 2.034-2.344 2.034-3.897z"/><path d="m5 2.75h14c.414 0 .75-.336.75-.75s-.336-.75-.75-.75h-14c-.414 0-.75.336-.75.75s.336.75.75.75z"/><path d="m5 22.75h14c.414 0 .75-.336.75-.75s-.336-.75-.75-.75h-14c-.414 0-.75.336-.75.75s.336.75.75.75z"/></g></g></svg>