<?xml version="1.0" standalone="no"?>
<!DOCTYPE svg PUBLIC "-//W3C//DTD SVG 20010904//EN"
 "http://www.w3.org/TR/2001/REC-SVG-20010904/DTD/svg10.dtd">
<svg version="1.0" xmlns="http://www.w3.org/2000/svg"
 width="375.000000pt" height="375.000000pt" viewBox="0 0 375.000000 375.000000"
 preserveAspectRatio="xMidYMid meet">
<metadata>
Created by potrace 1.14, written by Peter Selinger 2001-2017
</metadata>
<g transform="translate(0.000000,375.000000) scale(0.100000,-0.100000)"
fill="#000000" stroke="none">
<path d="M920 3738 c-51 -18 -65 -53 -68 -173 -2 -104 -1 -108 13 -83 34 61
-14 58 1015 58 1040 0 986 3 1016 -63 13 -30 14 -24 12 85 l-3 118 -33 32 -32
33 -948 1 c-537 1 -958 -3 -972 -8z"/>
<path d="M934 3353 c-12 -2 -34 -18 -50 -34 -28 -29 -29 -34 -32 -142 -2 -105
-1 -110 13 -85 35 62 -15 59 1014 60 1041 0 986 4 1017 -65 13 -30 14 -23 12
87 l-3 118 -39 34 -39 34 -936 -2 c-515 0 -946 -3 -957 -5z"/>
<path d="M905 2968 c-31 -18 -45 -35 -55 -65 -5 -17 -8 -597 -7 -1430 l2
-1403 33 -32 32 -33 949 -2 c1047 -1 994 -4 1025 62 14 30 16 181 16 1430 0
1228 -2 1400 -15 1425 -33 63 18 60 -1017 60 -694 -1 -948 -4 -963 -12z m1862
-101 c12 -5 25 -18 30 -30 4 -12 8 -620 8 -1351 l1 -1330 -21 -24 -22 -25
-892 0 -892 0 -22 21 -22 22 0 1328 c-1 730 3 1339 8 1353 4 15 17 30 28 35
25 11 1764 12 1796 1z"/>
<path d="M1033 2800 c-12 -5 -24 -19 -28 -31 -4 -12 -7 -589 -7 -1282 0 -1258
0 -1259 20 -1280 21 -20 26 -20 852 -20 830 0 831 0 852 21 l21 21 -1 1258 c0
692 -1 1264 -1 1271 -1 6 -10 21 -21 32 -20 20 -33 20 -842 19 -453 0 -833 -4
-845 -9z m995 -811 c62 -19 155 -75 201 -121 42 -40 125 -157 118 -165 -2 -1
-95 -36 -208 -76 -180 -65 -206 -72 -224 -60 -43 29 -101 8 -128 -47 -9 -17
-31 -32 -72 -46 -242 -87 -345 -123 -346 -121 -9 25 -12 58 -15 133 -5 153 52
283 171 392 130 119 336 164 503 111z m351 -381 c5 -13 9 -66 9 -118 -1 -75
-6 -110 -26 -165 -78 -221 -279 -360 -506 -351 -146 6 -250 51 -351 151 -54
54 -117 148 -105 158 3 2 94 35 204 75 187 67 200 70 226 57 46 -24 105 -2
121 45 6 15 18 30 27 33 20 6 150 53 282 101 52 19 99 35 103 36 4 0 12 -10
16 -22z"/>
</g>
</svg>
