<?xml version="1.0" standalone="no"?>
<!DOCTYPE svg PUBLIC "-//W3C//DTD SVG 20010904//EN"
 "http://www.w3.org/TR/2001/REC-SVG-20010904/DTD/svg10.dtd">
<svg version="1.0" xmlns="http://www.w3.org/2000/svg"
 width="491.000000pt" height="491.000000pt" viewBox="0 0 491.000000 491.000000"
 preserveAspectRatio="xMidYMid meet">
<metadata>
Created by potrace 1.14, written by Peter Selinger 2001-2017
</metadata>
<g transform="translate(0.000000,491.000000) scale(0.100000,-0.100000)"
fill="#000000" stroke="none">
<path d="M818 4889 c-297 -62 -535 -267 -642 -552 -54 -145 -53 -92 -51 -1909
1 -926 4 -1692 7 -1703 4 -11 14 -49 23 -84 69 -268 289 -502 555 -591 142
-48 137 -48 1780 -45 850 1 1560 5 1579 9 365 80 637 359 697 716 10 63 13
3344 2 3421 -12 93 -15 104 -39 171 -97 275 -319 481 -606 560 l-78 22 -1570
2 c-1482 1 -1575 0 -1657 -17z"/>
</g>
</svg>
